<svg id="Capa_1" enable-background="new 0 0 512 512" height="512" viewBox="0 0 512 512" width="512" xmlns="http://www.w3.org/2000/svg"><g><path d="m209 224c0 25.916 21.084 47 47 47s47-21.084 47-47-21.084-47-47-47-47 21.084-47 47zm64 0c0 9.374-7.626 17-17 17s-17-7.626-17-17 7.626-17 17-17 17 7.626 17 17z"/><path d="m481 354-66-49.5v-52.505c6.633 4.978 15.966 3.613 20.932-2.904 5.021-6.59 3.749-16.002-2.841-21.022l-162.091-123.499v-41.57h41c8.284 0 15-6.716 15-15s-6.716-15-15-15h-41v-18c0-8.284-6.716-15-15-15s-15 6.716-15 15v18h-41c-8.284 0-15 6.716-15 15s6.716 15 15 15h41v41.57l-162.091 123.498c-6.589 5.021-7.861 14.433-2.841 21.022 4.969 6.521 14.301 7.879 20.932 2.904v52.506l-66 49.5c-3.777 2.833-6 7.278-6 12v131c0 8.284 6.716 15 15 15h432c8.284 0 15-6.716 15-15v-131c0-4.722-2.223-9.167-6-12zm-384 128h-42v-108.5l42-31.5zm144 0h-34v-74c0-21.787 14.298-40.291 34-46.643zm64 0h-34v-120.643c19.702 6.352 34 24.855 34 46.643zm80 0h-50v-74c0-43.561-35.439-79-79-79s-79 35.439-79 79v74h-50v-252.856l129-98.285 129 98.285zm72 0h-42v-140l42 31.5z"/></g></svg>