<?xml version="1.0" encoding="iso-8859-1"?>
<!-- Generator: Adobe Illustrator 21.0.0, SVG Export Plug-In . SVG Version: 6.00 Build 0)  -->
<svg version="1.1" id="Capa_1" xmlns="http://www.w3.org/2000/svg" xmlns:xlink="http://www.w3.org/1999/xlink" x="0px" y="0px"
	 viewBox="0 0 512 512" style="enable-background:new 0 0 512 512;" xml:space="preserve">
<g>
	<g>
		<path d="M503.613,362.535l-57.784-28.392c-15.316-7.679-24.831-23.089-24.831-40.227v-76.671c0-16.217-3.833-32.455-11.066-46.92
			L339.664,28.792c-8.879-17.759-26.729-28.791-46.583-28.791c-14.5,0-27.63,5.962-37.082,15.557
			c-9.452-9.595-22.582-15.557-37.082-15.557c-19.854,0-37.704,11.032-46.603,28.828l-70.229,141.458
			c-7.252,14.504-11.085,30.742-11.085,46.958v76.671c0,17.138-9.515,32.548-24.832,40.227L8.387,362.536
			c-7.488,3.679-10.533,12.768-6.779,20.215l61,120.999c3.748,7.435,12.815,10.365,20.184,6.623l130.166-66.083
			c17.542-8.77,32.551-22.387,43.043-39.86c10.55,17.568,25.603,31.141,42.961,39.818l130.248,66.124
			c7.383,3.749,16.44,0.803,20.185-6.623l61-120.999C514.148,375.3,511.096,366.214,503.613,362.535z M241,350.375
			c0,28.591-15.886,54.296-41.541,67.123L82.624,476.813l-47.406-94.035l44.231-21.733c0.031-0.015,0.063-0.031,0.093-0.046
			c25.573-12.786,41.459-38.49,41.459-67.081v-76.671c0-11.583,2.738-23.181,7.937-33.579l70.229-141.458
			c3.765-7.53,11.333-12.207,19.751-12.207c12.176,0,22.082,9.906,22.082,22.082c0,14.949,0.547,18.283-2.332,24.039
			c-15.47,30.94-28.448,59.507-43.341,101.618c-0.004,0.009-11.763,33.257-11.763,33.257c-1.442,3.749-2.564,9.463-2.564,15.001
			v89.999c0,8.284,6.716,15,15,15c8.284,0,15-6.716,15-15v-89.999c0-8.442,6.87-15,15-15c8.271,0,15,6.729,15,15V350.375z
			 M226.024,180.999c9.276-25.605,19.298-49.732,29.884-71.977c10.591,22.67,20.625,46.76,29.971,71.977
			c-11.469,0.031-21.938,4.38-29.878,11.496C248.039,185.358,237.532,181.005,226.024,180.999z M429.376,476.813l-116.917-59.357
			C286.886,404.671,271,378.966,271,350.375V225.999c0-8.271,6.729-15,15-15c8.146,0,15,6.575,15,15v89.999c0,8.284,6.716,15,15,15
			s15-6.716,15-15v-89.999c0-10.183-2.606-15.117-11.41-40.011c-13.912-39.337-29.476-76.3-46.259-109.866
			c-2.869-5.739-2.331-8.944-2.331-24.04c0-12.176,9.906-22.082,22.082-22.082c8.418,0,15.986,4.677,19.731,12.169l70.268,141.535
			c5.18,10.359,7.918,21.958,7.918,33.541v76.671c0,28.592,15.886,54.296,41.459,67.081c0.031,0.016,0.063,0.031,0.093,0.046
			l44.232,21.733L429.376,476.813z"/>
	</g>
</g>
<g>
</g>
<g>
</g>
<g>
</g>
<g>
</g>
<g>
</g>
<g>
</g>
<g>
</g>
<g>
</g>
<g>
</g>
<g>
</g>
<g>
</g>
<g>
</g>
<g>
</g>
<g>
</g>
<g>
</g>
</svg>
