<svg height="512pt" viewBox="0 0 512.00039 512" width="512pt" xmlns="http://www.w3.org/2000/svg"><path d="m358.109375 358.109375c-21.441406 21.445313-21.441406 56.335937 0 77.78125 10.722656 10.722656 24.808594 16.082031 38.890625 16.082031 14.085938 0 28.167969-5.359375 38.890625-16.082031 21.445313-21.441406 21.445313-56.335937 0-77.78125-21.445313-21.441406-56.335937-21.441406-77.78125 0zm56.570313 56.570313c-9.75 9.746093-25.605469 9.746093-35.355469 0-9.746094-9.75-9.746094-25.609376 0-35.355469 9.75-9.75 25.609375-9.746094 35.355469 0 9.746093 9.746093 9.746093 25.605469 0 35.355469zm0 0"/><path d="m144.402344 346.394531-79.996094 80c-5.859375 5.859375-5.859375 15.355469 0 21.210938 2.925781 2.929687 6.765625 4.394531 10.605469 4.394531 3.835937 0 7.675781-1.464844 10.605469-4.394531l79.996093-79.996094c5.859375-5.859375 5.859375-15.355469 0-21.214844-5.855469-5.859375-15.351562-5.859375-21.210937 0zm0 0"/><path d="m370.089844 285.238281-39.839844-39.839843 97.3125-97.3125 42.78125-16.34375c3.785156-1.445313 6.824219-4.363282 8.425781-8.085938l32.011719-74.4375c2.425781-5.640625 1.167969-12.1875-3.175781-16.53125l-28.28125-28.285156c-4.34375-4.339844-10.890625-5.597656-16.535157-3.171875l-74.433593 32.011719c-3.726563 1.601562-6.640625 4.640624-8.089844 8.425781l-16.339844 42.777343-97.316406 97.316407-39.875-39.878907c9.414063-38.882812-1.84375-79.621093-30.449219-108.226562-32.300781-32.300781-80.691406-42.398438-123.285156-25.722656-4.710938 1.847656-8.175781 5.945312-9.214844 10.898437-1.035156 4.957031.5 10.097657 4.078125 13.675781l51.160157 51.160157-8.839844 26.515625-26.515625 8.839844-51.160157-51.160157c-3.578124-3.578125-8.71875-5.113281-13.675781-4.078125-4.953125 1.039063-9.050781 4.5-10.898437 9.214844-16.675782 42.589844-6.578125 90.984375 25.722656 123.285156 21.96875 21.96875 51.089844 33.703125 81.035156 33.703125 9.046875 0 18.167969-1.070312 27.191406-3.253906l29.269532 29.269531c.003906.003906.003906.003906.007812.007813 5.839844 5.847656 5.839844 15.359375-.007812 21.207031s-15.363282 5.847656-21.210938 0c-2.8125-2.816406-6.628906-4.394531-10.605468-4.394531-3.980469 0-7.796876 1.578125-10.609376 4.394531l-106.75 106.75c-14.164062 14.164062-21.9648432 33-21.9648432 53.03125 0 20.035156 7.8007812 38.867188 21.9648432 53.03125 14.625 14.625 33.828126 21.933594 53.035157 21.933594 19.203125-.003906 38.410156-7.3125 53.03125-21.933594l106.75-106.75c5.855469-5.859375 5.855469-15.355469 0-21.210938-2.832031-2.835937-4.394531-6.601562-4.394531-10.609374 0-4.007813 1.5625-7.773438 4.394531-10.605469 5.84375-5.847657 15.359375-5.847657 21.203125-.007813.003906.003906.003906.007813.007812.007813l29.234375 29.234375c-9.414062 38.882812 1.84375 79.621094 30.449219 108.226562 21.71875 21.722656 50.597656 33.683594 81.3125 33.683594s59.597656-11.960938 81.316406-33.683594c44.835938-44.835937 44.835938-117.792968 0-162.628906-28.605468-28.605469-69.347656-39.863281-108.226562-30.449219zm17.3125-181.84375c1.492187-1.492187 2.652344-3.28125 3.40625-5.25l15.222656-39.847656 59.269531-25.488281 13.902344 13.902344-25.488281 59.269531-39.847656 15.222656c-1.972657.753906-3.761719 1.914063-5.253907 3.40625l-134.929687 134.929687-21.214844-21.210937zm-245.828125 92.257813c-30.695313 10.09375-63.917969 2.207031-86.707031-20.578125-17.910157-17.914063-26.582032-42.53125-24.582032-67.011719l38.726563 38.726562c4.015625 4.019532 9.960937 5.421876 15.347656 3.625l42.425781-14.140624c4.480469-1.492188 7.996094-5.007813 9.488282-9.488282l14.140624-42.425781c1.796876-5.386719.394532-11.332031-3.625-15.347656l-38.726562-38.730469c24.472656-2 49.097656 6.671875 67.011719 24.585938 22.785156 22.789062 30.671875 56.011718 20.578125 86.707031-1.769532 5.378906-.359375 11.292969 3.644531 15.292969l46.101563 46.105468-14.140626 14.144532-10.605468-10.609376c-2.816406-2.8125-6.628906-4.390624-10.609375-4.390624-3.976563 0-7.792969 1.578124-10.605469 4.390624l-17.675781 17.679688-24.890625-24.894531c-4.003906-4-9.917969-5.410157-15.296875-3.640625zm72.003906 123.988281c-13.828125 13.828125-16.757813 34.492187-8.789063 51.214844l-97.960937 97.964843c-17.542969 17.542969-46.09375 17.542969-63.636719 0-8.5-8.5-13.179687-19.800781-13.179687-31.820312s4.679687-23.320312 13.179687-31.816406l97.960938-97.964844c16.726562 7.972656 37.390625 5.039062 51.214844-8.789062 13.828124-13.828126 16.757812-34.488282 8.789062-51.210938l8.886719-8.890625 63.640625 63.636719-8.886719 8.890625c-16.730469-7.972657-37.390625-5.039063-51.21875 8.785156zm243.527344 137.464844c-16.054688 16.054687-37.398438 24.894531-60.101563 24.894531-22.707031 0-44.050781-8.839844-60.105468-24.894531-22.785157-22.789063-30.671876-56.011719-20.574219-86.707031 1.765625-5.375.359375-11.292969-3.644531-15.292969l-24.855469-24.855469 17.675781-17.675781c5.859375-5.859375 5.859375-15.355469 0-21.214844l-10.605469-10.605469 14.144531-14.140625 46.066407 46.066407c4.003906 4.003906 9.917969 5.410156 15.292969 3.644531 30.695312-10.097657 63.921874-2.210938 86.707031 20.574219 33.140625 33.140624 33.140625 87.066406 0 120.207031zm0 0"/></svg>