<svg id="Layer_1" enable-background="new 0 0 512 512" height="512" viewBox="0 0 512 512" width="512" xmlns="http://www.w3.org/2000/svg"><path d="m38.8 262c.1.1.2.2.3.3l55 52c-11.4 18.1-9.3 42.4 6.5 58.2 9 9 20.7 13.5 32.4 13.7.4 12 5.2 23.9 14.4 33.1 9.1 9.1 21.2 14.2 34.1 14.4.2 12.4 5 24.6 14.4 34.1 18.3 19.1 51.3 19.1 69.7 0l29.9-29.9 6.7 6.7c19.4 19.4 51.1 19.4 70.5 0l.4-.4c9.4-9.4 14.2-21.6 14.6-34 12.9.1 25.7-4.8 35.5-14.6l.4-.4c9.3-9.3 14.5-21.6 14.6-34.8 12.6-.1 25.1-5 34.7-14.6l.4-.4c19.4-19.4 19.4-51.1 0-70.5l-5.1-5.1 2.6-2.6c124.7-135.5-60.7-320.7-196.1-196.1l-25.6 25.6-22.9-22.3c-51.8-51.5-135.8-51.5-187.4.1-51.7 51.7-51.7 135.8 0 187.5zm412.8 62.6c-7.8 7.8-20.4 7.8-28.1 0l-27.5-27.5c-7.7-7.4-7.7-20.7 0-28.1l.4-.4c7.4-7.7 20.7-7.7 28.1 0l27.5 27.5c7.8 7.8 7.8 20.4 0 28.1zm-77.9 49.8-45-45c-7.7-7.4-7.7-20.7 0-28.1l.4-.4c7.8-7.8 20.4-7.8 28.1 0l17.4 17.4 27.5 27.5c7.7 7.4 7.7 20.7 0 28.1l-.4.4c-7.6 7.8-20.2 7.8-28 .1zm-50.5 49-17.8-17.8c-7.7-7.4-7.7-20.7 0-28.1l.4-.4c7.8-7.8 20.4-7.8 28.1 0l17.8 17.8c7.8 7.8 7.8 20.4 0 28.1l-.4.4c-7.7 7.7-20.3 7.7-28.1 0zm-201.4-96 102.9-102.9c.5-.5 1.4-.5 1.9 0l16.6 16.6c20 20.9 56.1 20.9 76.1 0 21.1-20.2 20.8-56.8-.6-76.7l-48.1-46.7 25.3-25.3c42.4-42.4 111.3-42.4 153.7 0s42.4 111.3 0 153.7l-2.6 2.6-1.3-1.3c-18.6-19.3-52-19.3-70.5 0l-.4.4c-6 6-10.2 13.2-12.5 21-18.1-7.4-39.6-3.8-54.2 10.8l-.4.4c-17.2 16.5-19.4 45.3-5.3 64.3-6.4 2.4-12.5 6.2-17.7 11.4l-.4.4c-15.5 15-19.1 40.3-8.6 59.1l-31.3 31.3c-7.2 7.5-20.1 7.5-27.3 0-7.6-7.6-7.5-19.9.1-27.4l27.8-27.8c5.9-5.9 5.9-15.3 0-21.2s-15.3-5.9-21.2 0l-27.9 27.9c-7.2 7.5-20.1 7.5-27.3 0-7.5-7.5-7.5-19.7 0-27.3l28.1-28.1c5.9-5.9 5.9-15.3 0-21.2s-15.3-5.9-21.2 0c0 0-29.6 29.6-29.7 29.7-6.6 6.6-17.3 6.6-23.9 0-6.7-6.4-6.7-17.1-.1-23.7zm-61.8-231.6c40-40 105.2-40 145.2.2l92.6 90c4.6 4.5 7.2 10.5 7.3 16.9.2 21.3-25.6 32-40.7 17l-16.6-16.6c-11.7-12.2-32.6-12.2-44.3 0l-89 89-54.6-51.7c-39.9-39.9-39.9-104.9.1-144.8z"/></svg>