<?xml version="1.0" encoding="iso-8859-1"?>
<!-- Generator: Adobe Illustrator 19.0.0, SVG Export Plug-In . SVG Version: 6.00 Build 0)  -->
<svg version="1.1" id="Capa_1" xmlns="http://www.w3.org/2000/svg" xmlns:xlink="http://www.w3.org/1999/xlink" x="0px" y="0px"
	 viewBox="0 0 512 512" style="enable-background:new 0 0 512 512;" xml:space="preserve">
<g>
	<g>
		<path d="M406,301c-55.768,0-101.512,43.704-104.803,98.659L271,430.359V291.027l11.287-9.889
			c74.643-65.407,138.42-106.438,138.42-180.35C420.707,44.712,385.738,0,330.872,0C299.836,0,272.215,15.992,256,40.405
			C239.785,15.992,212.164,0,181.128,0c-54.955,0-89.835,44.82-89.835,100.789c0,73.996,63.927,115.073,138.421,180.351L241,291.028
			v78.759l-30.202-30.202C207.472,284.665,161.743,241,106,241H91v15c0,55.743,43.664,101.472,98.585,104.798L241,412.213V482h-90
			v30c43.504,0,166.026,0,210,0v-30h-90v-8.859l51.49-52.348C377.375,417.43,421,371.717,421,316v-15H406z M122.926,272.926
			c27.791,6.434,49.714,28.357,56.148,56.148C151.283,322.64,129.36,300.717,122.926,272.926z M262.516,258.575L256,264.284
			l-6.516-5.708c-76.483-67.024-128.191-99.964-128.191-157.787c0-35.235,18.502-70.789,59.835-70.789
			c31.627,0,57.938,25.002,59.9,56.92h29.943c1.962-31.918,28.273-56.92,59.9-56.92c41.333,0,59.835,35.554,59.835,70.789
			C390.706,158.536,339.597,191.028,262.516,258.575z M332.926,389.074c6.434-27.791,28.357-49.714,56.148-56.148
			C382.639,360.717,360.717,382.64,332.926,389.074z"/>
	</g>
</g>
<g>
</g>
<g>
</g>
<g>
</g>
<g>
</g>
<g>
</g>
<g>
</g>
<g>
</g>
<g>
</g>
<g>
</g>
<g>
</g>
<g>
</g>
<g>
</g>
<g>
</g>
<g>
</g>
<g>
</g>
</svg>
