<svg id="Capa_1" enable-background="new 0 0 512 512" height="512" viewBox="0 0 512 512" width="512" xmlns="http://www.w3.org/2000/svg"><g><path d="m497 220h-46v-24c0-30.643-18.481-57.037-44.875-68.662 9.288-11.243 14.875-25.65 14.875-41.338 0-35.841-29.159-65-65-65-20.084 0-38.067 9.16-50 23.518-11.933-14.358-29.916-23.518-50-23.518s-38.067 9.16-50 23.518c-11.933-14.358-29.916-23.518-50-23.518-35.841 0-65 29.159-65 65 0 15.688 5.587 30.095 14.875 41.338-26.394 11.625-44.875 38.019-44.875 68.662v24h-46c-8.284 0-15 6.716-15 15v60c0 8.284 6.716 15 15 15h28.91c2.653 7.554 5.674 14.898 9.041 21.982l-20.397 20.398c-2.813 2.813-4.394 6.628-4.394 10.606s1.58 7.794 4.394 10.606l84.854 84.853c5.857 5.857 15.355 5.857 21.213 0l20.396-20.396c7.086 3.368 14.43 6.388 21.983 9.041v28.91c0 8.284 6.716 15 15 15h120c8.284 0 15-6.716 15-15v-28.91c7.554-2.653 14.897-5.673 21.983-9.041l20.396 20.396c5.857 5.857 15.355 5.857 21.213 0l84.854-84.853c2.813-2.813 4.394-6.628 4.394-10.606s-1.58-7.794-4.394-10.606l-20.397-20.397c3.367-7.084 6.388-14.429 9.041-21.982h28.91c8.284 0 15-6.716 15-15v-60c0-8.285-6.716-15.001-15-15.001zm-76-24v24h-70v-24c0-16.871-5.602-32.455-15.04-44.999.013 0 .027-.001.04-.001h40c24.813 0 45 20.187 45 45zm-50.978 54c-7.373 56.349-55.694 100-114.022 100s-106.649-43.651-114.022-100zm-179.022-54c0-24.813 20.187-45 45-45h40c24.813 0 45 20.187 45 45v24h-130zm165-145c19.299 0 35 15.701 35 35s-15.701 35-35 35-35-15.701-35-35 15.701-35 35-35zm-100 0c19.299 0 35 15.701 35 35s-15.701 35-35 35-35-15.701-35-35 15.701-35 35-35zm-100 0c19.299 0 35 15.701 35 35s-15.701 35-35 35-35-15.701-35-35 15.701-35 35-35zm-65 145c0-24.813 20.187-45 45-45h40c.013 0 .026.001.04.001-9.438 12.544-15.04 28.128-15.04 44.999v24h-70zm391 84h-24.812c-6.636 0-12.482 4.359-14.376 10.719-3.9 13.098-9.031 25.557-15.25 37.031-3.164 5.837-2.113 13.06 2.581 17.754l17.482 17.482-63.64 63.64-17.481-17.481c-4.693-4.694-11.914-5.745-17.753-2.582-11.478 6.22-23.938 11.351-37.033 15.25-6.359 1.894-10.719 7.74-10.719 14.376v24.811h-90v-24.812c0-6.636-4.359-12.482-10.719-14.376-13.096-3.899-25.556-9.03-37.033-15.25-5.838-3.162-13.059-2.112-17.753 2.582l-17.481 17.481-63.64-63.64 17.482-17.482c4.694-4.694 5.745-11.917 2.581-17.754-6.219-11.475-11.35-23.934-15.25-37.031-1.892-6.359-7.739-10.718-14.374-10.718h-24.812v-30h81.771c7.531 72.931 69.342 130 144.229 130s136.698-57.069 144.229-130h81.771z"/></g></svg>