<svg id="Layer_1" enable-background="new 0 0 510 510" height="512" viewBox="0 0 510 510" width="512" xmlns="http://www.w3.org/2000/svg"><g><path d="m120 0c-41.355 0-75 33.645-75 75v375c0 33.084 26.916 60 60 60h360v-30h-30v-60h30c0-20.265 0-404.016 0-420zm-15 390c-10.925 0-21.168 2.949-30 8.072v-188.072h45v180zm15-210h-45v-30h45zm0-150v90h-45v-45c0-24.813 20.187-45 45-45zm285 450h-300c-39.809-1.653-39.778-58.362 0-60h300zm-255-90v-360h285v360z"/><path d="m240 107.968v149.612c-28.572-10.595-60.437 11.865-60 42.42 2.469 59.695 87.536 59.684 90 0v-107.968l105-23.333v58.881c-28.572-10.595-60.437 11.865-60 42.42 2.469 59.695 87.536 59.684 90 0 0-39.534 0-162.168 0-198.699zm-15 207.032c-8.271 0-15-6.728-15-15 .823-19.9 29.18-19.894 30 0 0 8.272-6.729 15-15 15zm135-30c-8.272 0-15-6.728-15-15 .823-19.9 29.18-19.894 30 0 0 8.272-6.728 15-15 15zm-90-152.968 105-23.333v29.268l-105 23.333z"/></g></svg>