<svg id="Capa_1" enable-background="new 0 0 512 512" height="512" viewBox="0 0 512 512" width="512" xmlns="http://www.w3.org/2000/svg"><g><path d="m198.562 182.902c-11.107-1.926-22.063-2.902-32.562-2.902-10.508 0-21.464.976-32.563 2.901-8.163 1.416-13.632 9.18-12.216 17.343s9.179 13.633 17.343 12.216c9.411-1.632 18.642-2.46 27.437-2.46 8.787 0 18.018.828 27.438 2.461.867.15 1.729.223 2.58.223 7.16 0 13.498-5.145 14.762-12.441 1.413-8.162-4.056-15.927-12.219-17.341z"/><path d="m378.563 182.901c-11.099-1.925-22.055-2.901-32.563-2.901-10.499 0-21.455.976-32.562 2.902-8.163 1.415-13.632 9.179-12.218 17.341 1.265 7.296 7.602 12.441 14.762 12.441.85 0 1.713-.073 2.58-.223 9.42-1.633 18.651-2.461 27.438-2.461 8.795 0 18.026.828 27.437 2.46 8.164 1.416 15.928-4.053 17.343-12.216 1.415-8.162-4.054-15.927-12.217-17.343z"/><path d="m315.982 152.684c.85 0 1.713-.073 2.58-.223 9.42-1.633 18.651-2.461 27.438-2.461 8.795 0 18.026.828 27.437 2.46 8.164 1.416 15.928-4.053 17.343-12.216 1.416-8.162-4.053-15.927-12.216-17.343-11.1-1.925-22.056-2.901-32.564-2.901-10.499 0-21.455.976-32.562 2.902-8.163 1.415-13.632 9.179-12.218 17.341 1.265 7.296 7.602 12.441 14.762 12.441z"/><path d="m198.563 122.901c-11.099-1.925-22.055-2.901-32.563-2.901-10.499 0-21.455.976-32.562 2.902-8.163 1.415-13.632 9.179-12.218 17.341 1.265 7.296 7.602 12.441 14.762 12.441.85 0 1.713-.073 2.58-.223 9.42-1.633 18.651-2.461 27.438-2.461 8.795 0 18.026.828 27.437 2.46 8.163 1.416 15.928-4.053 17.343-12.216 1.415-8.162-4.054-15.927-12.217-17.343z"/><path d="m315.982 92.684c.85 0 1.713-.073 2.58-.223 9.42-1.633 18.651-2.461 27.438-2.461 8.795 0 18.026.828 27.437 2.46 8.164 1.416 15.928-4.053 17.343-12.216 1.416-8.162-4.053-15.927-12.216-17.343-11.1-1.925-22.056-2.901-32.564-2.901-10.499 0-21.455.976-32.562 2.902-8.163 1.415-13.632 9.179-12.218 17.341 1.265 7.296 7.602 12.441 14.762 12.441z"/><path d="m135.982 92.684c.85 0 1.713-.073 2.58-.223 9.42-1.633 18.651-2.461 27.438-2.461 8.795 0 18.026.828 27.437 2.46 8.163 1.416 15.928-4.053 17.343-12.216 1.416-8.162-4.053-15.927-12.216-17.343-11.1-1.925-22.056-2.901-32.564-2.901-10.499 0-21.455.976-32.562 2.902-8.163 1.415-13.632 9.179-12.218 17.341 1.265 7.296 7.602 12.441 14.762 12.441z"/><path d="m466 422h-15v-76c0-8.284-6.716-15-15-15h-165v-37.567c13.319-7.643 44.528-23.433 75-23.433 39.757 0 81.25 27.196 81.695 27.491 4.6 3.059 10.512 3.341 15.383.734 4.877-2.61 7.922-7.693 7.922-13.225v-240c0-5.015-2.506-9.699-6.68-12.481-1.991-1.328-49.341-32.519-98.32-32.519-37.493 0-74.032 18.278-90 27.446-15.968-9.168-52.507-27.446-90-27.446-48.979 0-96.329 31.191-98.32 32.519-4.174 2.782-6.68 7.466-6.68 12.481v240c0 5.525 3.045 10.598 7.914 13.211s10.787 2.333 15.391-.72c.415-.275 41.924-27.491 81.695-27.491 30.319 0 61.644 15.815 75 23.451v37.549h-165c-8.284 0-15 6.716-15 15v76h-15c-8.284 0-15 6.716-15 15v60c0 8.284 6.716 15 15 15h60c8.284 0 15-6.716 15-15v-60c0-8.284-6.716-15-15-15h-15v-61h150v61h-15c-8.284 0-15 6.716-15 15v60c0 8.284 6.716 15 15 15h60c8.284 0 15-6.716 15-15v-60c0-8.284-6.716-15-15-15h-15v-61h150v61h-15c-8.284 0-15 6.716-15 15v60c0 8.284 6.716 15 15 15h60c8.284 0 15-6.716 15-15v-60c0-8.284-6.716-15-15-15zm-45-368.55v206.093c-18.779-9.068-46.616-19.543-75-19.543-28.388 0-56.221 10.477-75 19.546v-206.113c13.319-7.643 44.528-23.433 75-23.433 30.316 0 61.642 15.814 75 23.45zm-255 186.55c-28.384 0-56.221 10.475-75 19.543v-206.092c13.368-7.642 44.688-23.451 75-23.451 30.319 0 61.644 15.815 75 23.451v206.095c-18.779-9.069-46.612-19.546-75-19.546zm-75 242h-30v-30h30zm180 0h-30v-30h30zm180 0h-30v-30h30z"/></g></svg>