<svg height="512.001pt" viewBox="0 0 512.001 512.001" width="512.001pt" xmlns="http://www.w3.org/2000/svg"><path d="m497.625 428.214844-56.242188-56.242188c-15.433593-15.4375-38.679687-18.414062-57.136718-8.941406l-33.082032-33.082031c30.128907-34.988281 48.367188-80.492188 48.367188-130.183594 0-110.152344-89.613281-199.765625-199.765625-199.765625-110.148437 0-199.765625 89.613281-199.765625 199.765625s89.613281 199.769531 199.765625 199.769531c49.6875 0 95.195313-18.242187 130.183594-48.371094l33.082031 33.082032c-9.472656 18.453125-6.496094 41.699218 8.941406 57.140625l56.242188 56.238281c9.269531 9.269531 21.59375 14.375 34.699218 14.375 13.109376 0 25.4375-5.105469 34.703126-14.375.003906-.003906.003906-.003906.007812-.007812 9.269531-9.269532 14.375-21.59375 14.375-34.703126 0-13.105468-5.105469-25.433593-14.375-34.699218zm-297.859375-58.683594c-93.609375 0-169.765625-76.15625-169.765625-169.765625s76.15625-169.765625 169.765625-169.765625c93.613281 0 169.769531 76.15625 169.769531 169.765625 0 93.613281-76.160156 169.765625-169.769531 169.765625zm276.644531 106.871094c0 .003906 0 .003906-.003906.003906 0 .003906 0 .003906-.003906.003906-7.449219 7.453125-19.515625 7.460938-26.976563 0l-56.242187-56.238281c-7.4375-7.4375-7.4375-19.539063.007812-26.988281 7.433594-7.429688 19.535156-7.441406 26.980469 0l56.238281 56.242187c7.453125 7.453125 7.460938 19.519531 0 26.976563zm0 0"/><path d="m119.433594 136.566406h-32.132813c-8.285156 0-15 6.714844-15 15s6.714844 15 15 15h17.132813v57.300782c0 5.019531-4.082032 9.101562-9.101563 9.101562-5.015625 0-9.097656-4.082031-9.097656-9.101562 0-8.285157-6.71875-15-15-15-8.285156 0-15 6.714843-15 15 0 21.558593 17.539063 39.101562 39.097656 39.101562 21.5625 0 39.101563-17.542969 39.101563-39.101562v-72.300782c0-8.285156-6.714844-15-15-15zm0 0"/><path d="m195.734375 136.566406c-23.8125 0-43.101563 19.265625-43.101563 43.101563v40.199219c0 23.773437 19.21875 43.101562 43.132813 43.101562 23.808594 0 43.101563-19.265625 43.101563-43.101562v-40.199219c0-23.777344-19.21875-43.101563-43.132813-43.101563zm13.132813 83.300782c0 7.195312-5.800782 13.101562-13.132813 13.101562-7.242187 0-13.101563-5.855469-13.101563-13.101562v-40.199219c0-7.195313 5.800782-13.101563 13.132813-13.101563 7.238281 0 13.101563 5.855469 13.101563 13.101563zm0 0"/><path d="m343.300781 175.667969c0-21.597657-17.476562-39.101563-39.101562-39.101563h-32.132813c-8.285156 0-15 6.714844-15 15v96.398438c0 8.285156 6.714844 15 15 15h32.132813c21.601562 0 39.101562-17.476563 39.101562-39.101563 0-8.851562-2.933593-17.246093-8.320312-24.097656 5.386719-6.851563 8.320312-15.246094 8.320312-24.097656zm-30 0c0 5.027343-4.066406 9.097656-9.101562 9.097656h-17.132813v-18.199219h17.132813c5.015625 0 9.101562 4.058594 9.101562 9.101563zm-9.101562 57.300781h-17.132813v-18.203125h17.132813c5.027343 0 9.101562 4.070313 9.101562 9.101563 0 5.027343-4.066406 9.101562-9.101562 9.101562zm0 0"/></svg>