<svg id="Capa_1" enable-background="new 0 0 512 512" height="512" viewBox="0 0 512 512" width="512" xmlns="http://www.w3.org/2000/svg"><path d="m498.798 435.272-58.963-58.847c26.356-73.317-34.136-149.261-111.841-139.621-12.843-10.532-28.23-17.267-44.804-19.534l-42.194-5.771v-6.57c21.504-16.305 34.729-40.107 37.882-65.799l3.523-28.715c7.187-58.589-38.652-110.415-97.881-110.415h-7.047c-59.265 0-105.063 51.866-97.881 110.416l3.523 28.715c3.156 25.713 16.394 49.507 37.882 65.799v6.562l-43.09 5.842c-44.652 6.053-77.907 44.205-77.907 89.185v190.481c0 8.284 6.716 15 15 15h330.993c8.284 0 15-6.716 15-15v-52.919c5.2-1.007 10.264-2.398 15.162-4.144l59.028 58.91c17.538 17.503 46.077 17.504 63.616 0 17.6-17.564 17.603-46.007-.001-63.575zm-82.807-94.272c0 41.355-33.644 75-74.998 75s-74.998-33.645-74.998-75 33.644-75 74.998-75 74.998 33.645 74.998 75zm-264.994-120.577c19.54 6.148 40.446 6.152 59.999 0v5.577c0 16.542-13.458 30-29.999 30s-29.999-13.458-29.999-30v-5.577zm26.476-190.423h7.047c34.755 0 64.333 26.022 68.181 61h-39.68l-20.502-24.603c-6.426-7.71-18.453-7.043-24.003 1.282l-15.546 23.321h-43.678c3.849-34.983 33.431-61 68.181-61zm-64.581 105.477-1.776-14.477h49.881c5.016 0 9.699-2.507 12.48-6.68l8.856-13.285 12.139 14.567c2.85 3.42 7.071 5.397 11.523 5.397h44.881l-1.776 14.477c-4.166 33.954-33.444 59.559-68.104 59.559s-63.938-25.604-68.104-59.558zm-82.893 171.042c0-29.882 22.329-55.442 51.938-59.456l41.098-5.572c6.848 25.599 30.233 44.509 57.96 44.509 27.724 0 51.107-18.907 57.958-44.501 44.047 6.024 43.997 5.725 50.727 7.922-55.937 31.467-70.432 104.253-32.687 154.509v78.07h-150.995v-120.728c0-8.284-6.716-15-15-15s-15 6.716-15 15v120.728h-45.999zm256.995 175.481v-50.983c13.089 7.882 28.028 12.988 43.999 14.504v36.479zm190.613-4.387c-5.855 5.842-15.379 5.842-21.234 0l-52.602-52.497c8.028-6.007 15.168-13.135 21.193-21.149l52.644 52.54c5.848 5.836 5.847 15.27-.001 21.106z"/></svg>