<svg id="Capa_1" enable-background="new 0 0 512 512" height="512" viewBox="0 0 512 512" width="512" xmlns="http://www.w3.org/2000/svg"><g><path d="m301 105c0-24.813-20.187-45-45-45s-45 20.187-45 45 20.187 45 45 45 45-20.187 45-45zm-45 15c-8.271 0-15-6.729-15-15s6.729-15 15-15 15 6.729 15 15-6.729 15-15 15z"/><path d="m331 150h-150v90h150zm-30 60h-90v-30h90z"/><path d="m120 345c0-24.813-20.187-45-45-45s-45 20.187-45 45 20.187 45 45 45 45-20.187 45-45zm-45 15c-8.271 0-15-6.729-15-15s6.729-15 15-15 15 6.729 15 15-6.729 15-15 15z"/><path d="m0 390v90h150v-90zm120 60h-90v-30h90z"/><path d="m482 345c0-24.813-20.187-45-45-45s-45 20.187-45 45 20.187 45 45 45 45-20.187 45-45zm-45 15c-8.271 0-15-6.729-15-15s6.729-15 15-15 15 6.729 15 15-6.729 15-15 15z"/><path d="m437 390h-75v90h150v-90zm45 60h-90v-30h90z"/><path d="m271 329.311c83.977-7.604 150-78.386 150-164.311 0-90.981-74.019-165-165-165s-165 74.019-165 165c0 85.925 66.023 156.707 150 164.311v30.689h-30v152h90v-152h-30zm-150-164.311c0-74.439 60.561-135 135-135s135 60.561 135 135-60.561 135-135 135-135-60.561-135-135zm150 317h-30v-92h30z"/></g></svg>