<svg height="512pt" viewBox="-67 0 512 512" width="512pt" xmlns="http://www.w3.org/2000/svg"><path d="m188.6875 512c-4.152344 0-8.308594-1.5625-11.492188-4.703125-49.734374-48.972656-95.269531-106.683594-128.214843-162.515625-74.90625-126.9375-47.515625-213.46875-24.511719-253.75 32.550781-57.003906 93.9375-91.03125 164.21875-91.03125 70.269531 0 131.660156 34.027344 164.210938 91.03125 23.003906 40.28125 50.402343 126.8125-24.511719 253.75-26.039063 44.132812-60.109375 89.679688-98.546875 131.730469-6.105469 6.644531-16.453125 7.152343-23.144532 1.027343-6.675781-6.105468-7.144531-16.460937-1.03125-23.144531 36.929688-40.390625 69.605469-84.054687 94.507813-126.273437 49.285156-83.511719 57.902344-161.9375 24.265625-220.839844-26.640625-46.664062-77.390625-74.515625-135.75-74.515625-58.371094 0-109.117188 27.859375-135.757812 74.515625-33.636719 58.898438-25.011719 137.328125 24.261718 220.839844 31.542969 53.453125 75.226563 108.796875 122.980469 155.835937 6.453125 6.351563 6.53125 16.71875.1875 23.164063-3.203125 3.253906-7.429687 4.878906-11.671875 4.878906zm0 0"/><path d="m277.695312 294.523438h-62.367187c-9.050781 0-16.382813-7.332032-16.382813-16.386719v-40.9375h-20.515624v40.9375c0 9.054687-7.332032 16.386719-16.382813 16.386719h-62.367187c-9.050782 0-16.382813-7.332032-16.382813-16.386719v-177.023438c0-9.054687 7.332031-16.382812 16.382813-16.382812h62.367187c9.050781 0 16.382813 7.328125 16.382813 16.382812v40.972657h20.515624v-40.972657c0-9.054687 7.332032-16.382812 16.382813-16.382812h62.367187c9.050782 0 16.382813 7.328125 16.382813 16.382812v177.023438c0 9.046875-7.332031 16.386719-16.382813 16.386719zm-45.992187-32.769532h29.609375v-144.269531h-29.609375v40.976563c0 9.050781-7.328125 16.382812-16.382813 16.382812h-53.273437c-9.054687 0-16.386719-7.332031-16.386719-16.382812v-40.976563h-29.605468v144.269531h29.605468v-40.9375c0-9.054687 7.332032-16.382812 16.386719-16.382812h53.273437c9.054688 0 16.382813 7.328125 16.382813 16.382812zm0 0"/></svg>