<svg id="Capa_1" enable-background="new 0 0 512 512" height="512" viewBox="0 0 512 512" width="512" xmlns="http://www.w3.org/2000/svg"><g><path d="m60.333 0v512h391.334v-512zm361.334 80h-90.334v-50h90.334zm-211 0v-50h90.666v50zm-30-50v50h-90.334v-50zm30 451v-40.916h90.666v40.916zm120.666 1v-71.916h-150.666v71.916h-90.334v-372h331.334v372z"/><path d="m120.333 139.999h30v56.001h-30z"/><path d="m180.667 139.999h30v56.001h-30z"/><path d="m241 139.999h30v56.001h-30z"/><path d="m301.333 139.999h30v56.001h-30z"/><path d="m361.667 139.999h30v56.001h-30z"/><path d="m120.333 226h30v56.001h-30z"/><path d="m180.667 226h30v56.001h-30z"/><path d="m241 226h30v56.001h-30z"/><path d="m301.333 226h30v56.001h-30z"/><path d="m361.667 226h30v56.001h-30z"/><path d="m120.333 312.001h30v56.001h-30z"/><path d="m180.667 312.001h30v56.001h-30z"/><path d="m241 312.001h30v56.001h-30z"/><path d="m301.333 312.001h30v56.001h-30z"/><path d="m361.667 312.001h30v56.001h-30z"/></g></svg>