<svg id="Capa_1" enable-background="new 0 0 512 512" height="512" viewBox="0 0 512 512" width="512" xmlns="http://www.w3.org/2000/svg"><g><path d="m451 392h-389c-8.284 0-15 6.716-15 15v90c0 8.284 6.716 15 15 15h389c8.284 0 15-6.716 15-15v-90c0-8.284-6.716-15-15-15zm-15 90h-359v-60h45v30c0 8.284 6.716 15 15 15s15-6.716 15-15v-30h30v15c0 8.284 6.716 15 15 15s15-6.716 15-15v-15h29v30c0 8.284 6.716 15 15 15s15-6.716 15-15v-30h30v15c0 8.284 6.716 15 15 15s15-6.716 15-15v-15h30v30c0 8.284 6.716 15 15 15s15-6.716 15-15v-30h45z"/><path d="m421 0h-239c-8.284 0-15 6.716-15 15v331c0 8.284 6.716 15 15 15h237.231c25.789 0 46.769-20.98 46.769-46.769v-269.231c0-24.813-20.187-45-45-45zm15 314.231c0 9.247-7.522 16.769-16.769 16.769h-222.231v-301h224c8.271 0 15 6.729 15 15z"/><path d="m61 361h60c8.284 0 15-6.716 15-15v-271c0-2.329-.542-4.625-1.583-6.708l-30-60c-2.542-5.082-7.735-8.292-13.417-8.292s-10.875 3.21-13.417 8.292l-30 60c-1.041 2.083-1.583 4.379-1.583 6.708v271c0 8.284 6.716 15 15 15zm15-30v-30.95h30v30.95zm15-282.459 15 30v191.509h-30v-191.509z"/><path d="m376 91h-119c-8.284 0-15 6.716-15 15v60c0 8.284 6.716 15 15 15h119c8.284 0 15-6.716 15-15v-60c0-8.284-6.716-15-15-15zm-15 60h-89v-30h89z"/><path d="m376 211h-119c-8.284 0-15 6.716-15 15s6.716 15 15 15h119c8.284 0 15-6.716 15-15s-6.716-15-15-15z"/></g></svg>