<?xml version="1.0"?>
<svg xmlns="http://www.w3.org/2000/svg" id="Layer_1" data-name="Layer 1" viewBox="0 0 64 64" width="512" height="512"><path d="M59,5H5a5.00588,5.00588,0,0,0-5,5V46a5.00588,5.00588,0,0,0,5,5H25v6a2.0001,2.0001,0,0,0,2,2H37a2.0001,2.0001,0,0,0,2-2V51H59a5.00588,5.00588,0,0,0,5-5V10A5.00588,5.00588,0,0,0,59,5ZM35,55H29V51h6Zm25-9a1.0013,1.0013,0,0,1-1,1H5a1.0013,1.0013,0,0,1-1-1V10A1.0013,1.0013,0,0,1,5,9H59a1.0013,1.0013,0,0,1,1,1Z"/><path d="M48,21h5a2.00021,2.00021,0,0,0-.00009-4H48a5.00588,5.00588,0,0,0-5,5v2a5.00588,5.00588,0,0,0,5,5h2a1.0013,1.0013,0,0,1,1,1v2a1.0013,1.0013,0,0,1-1,1H45a2,2,0,0,0,0,4h5a5.00588,5.00588,0,0,0,5-5V30a5.00588,5.00588,0,0,0-5-5H48a1.0013,1.0013,0,0,1-1-1V22A1.0013,1.0013,0,0,1,48,21Z"/><path d="M15.5,17A6.50753,6.50753,0,0,0,9,23.5V35a2.0002,2.0002,0,0,0,4-.00009V29h5v6a2.00021,2.00021,0,0,0,4-.00009V23.5A6.50753,6.50753,0,0,0,15.5,17ZM13,25V23.5a2.5,2.5,0,0,1,5,0V25Z"/><path d="M33,17H28a2.0001,2.0001,0,0,0-2,2V35a2.0001,2.0001,0,0,0,2,2h5a6.00657,6.00657,0,0,0,6-6V23A6.00657,6.00657,0,0,0,33,17Zm2,14a2.002,2.002,0,0,1-2,2H30V21h3a2.002,2.002,0,0,1,2,2Z"/><path d="M32,41a2.00021,2.00021,0,0,0,.00009,4A2.00021,2.00021,0,0,0,32,41Z"/></svg>
