<svg id="Capa_1" enable-background="new 0 0 512 512" height="512" viewBox="0 0 512 512" width="512" xmlns="http://www.w3.org/2000/svg"><g><path d="m398.283 270.936h24.989c6.22 17.816 23.182 30.637 43.092 30.637 25.164 0 45.637-20.473 45.637-45.637s-20.473-45.637-45.637-45.637c-19.91 0-36.872 12.821-43.092 30.637h-25.003c-2.944-28.008-14.006-53.629-30.779-74.472l60.418-60.418c8.147 4.548 17.52 7.151 27.495 7.151 31.209 0 56.599-25.39 56.599-56.599s-25.392-56.598-56.601-56.598-56.599 25.39-56.599 56.599c0 10.361 2.811 20.072 7.692 28.434l-60.139 60.139c-20.95-17.112-46.821-28.413-75.134-31.421v-25.023c17.816-6.22 30.637-23.182 30.637-43.092 0-25.164-20.472-45.636-45.636-45.636s-45.636 20.472-45.636 45.636c0 19.91 12.821 36.872 30.636 43.092v24.971c-28.529 2.941-54.594 14.303-75.671 31.548l-60.107-60.107c4.919-8.386 7.754-18.136 7.754-28.541-.001-31.209-25.391-56.599-56.599-56.599s-56.599 25.39-56.599 56.599 25.39 56.599 56.599 56.599c9.93 0 19.266-2.579 27.387-7.09l60.45 60.45c-16.731 20.827-27.764 46.413-30.704 74.379h-25.004c-6.22-17.816-23.182-30.637-43.091-30.637-25.164-.001-45.637 20.472-45.637 45.636s20.473 45.637 45.637 45.637c19.91 0 36.872-12.821 43.091-30.637h24.989c2.916 27.984 13.937 53.59 30.661 74.436l-60.474 60.474c-8.102-4.483-17.409-7.043-27.306-7.043-31.208 0-56.598 25.39-56.598 56.598s25.39 56.599 56.599 56.599 56.599-25.39 56.599-56.599c0-10.438-2.852-20.218-7.8-28.622l60.083-60.083c21.089 17.277 47.181 28.66 75.742 31.605v24.971c-17.815 6.22-30.636 23.182-30.636 43.092 0 25.164 20.472 45.636 45.636 45.636s45.637-20.472 45.637-45.636c0-19.91-12.821-36.872-30.637-43.092v-25.022c28.345-3.012 54.242-14.334 75.205-31.479l60.115 60.115c-4.91 8.38-7.739 18.121-7.739 28.515 0 31.208 25.39 56.599 56.599 56.599s56.597-25.39 56.597-56.599-25.39-56.599-56.599-56.599c-9.941 0-19.286 2.585-27.414 7.104l-60.442-60.442c16.767-20.862 27.817-46.502 30.738-74.528zm-169.59 10.066c-.861-7.91-1.311-16.013-1.311-24.258 0-8.762.5-17.367 1.471-25.747h54.3c.971 8.38 1.471 16.985 1.471 25.747 0 8.245-.45 16.347-1.311 24.258zm49.107 30c-4.866 18.378-12.235 35.025-21.798 49.006-9.563-13.981-16.932-30.628-21.797-49.006zm-134.861-55.002c0-8.589.968-16.957 2.791-25.002h52.96c-.864 8.432-1.309 17.031-1.309 25.747 0 8.204.398 16.303 1.164 24.258h-52.815c-1.823-8.046-2.791-16.414-2.791-25.003zm91.673-55.002c4.866-17.787 12.087-33.916 21.39-47.517 9.303 13.601 16.525 29.73 21.391 47.517zm78.702 30h52.955c1.823 8.046 2.791 16.413 2.791 25.002s-.968 16.957-2.791 25.002h-52.811c.766-7.955 1.164-16.053 1.164-24.258.001-8.716-.444-17.314-1.308-25.746zm153.049 9.301c8.622 0 15.637 7.015 15.637 15.637s-7.015 15.637-15.637 15.637-15.637-7.015-15.637-15.637 7.015-15.637 15.637-15.637zm-10.962-210.299c14.667 0 26.599 11.932 26.599 26.599s-11.932 26.599-26.599 26.599-26.599-11.932-26.599-26.599 11.932-26.599 26.599-26.599zm-100.653 170.998h-46.453c-4.589-19.512-11.591-37.628-20.749-53.574 28.777 8.374 52.847 27.903 67.202 53.574zm-98.526-170.998c8.622 0 15.637 7.014 15.637 15.636s-7.015 15.637-15.637 15.637-15.636-7.015-15.636-15.637 7.014-15.636 15.636-15.636zm-31.763 117.422c-9.158 15.947-16.161 34.063-20.749 53.576h-46.458c14.356-25.673 38.428-45.202 67.207-53.576zm-194.459-90.823c0-14.667 11.932-26.599 26.599-26.599s26.599 11.932 26.599 26.599-11.933 26.598-26.599 26.598-26.599-11.932-26.599-26.598zm15.637 214.974c-8.622 0-15.637-7.015-15.637-15.637s7.015-15.637 15.637-15.637 15.636 7.015 15.636 15.637-7.014 15.637-15.636 15.637zm10.962 210.427c-14.667 0-26.599-11.932-26.599-26.599s11.932-26.599 26.599-26.599 26.599 11.932 26.599 26.599-11.933 26.599-26.599 26.599zm100.653-170.998h46.101c4.413 19.356 11.205 37.356 20.099 53.275-28.333-8.532-52.012-27.903-66.2-53.275zm98.97 170.998c-8.622 0-15.636-7.014-15.636-15.636s7.014-15.637 15.636-15.637 15.637 7.015 15.637 15.637-7.015 15.636-15.637 15.636zm32.331-117.724c8.893-15.919 15.685-33.919 20.098-53.274h46.097c-14.187 25.371-37.864 44.741-66.195 53.274zm193.447 91.125c0 14.667-11.932 26.599-26.599 26.599s-26.599-11.932-26.599-26.599 11.932-26.599 26.599-26.599 26.599 11.933 26.599 26.599z"/></g></svg>