<svg height="682pt" viewBox="-21 -87 682.66669 682" width="682pt" xmlns="http://www.w3.org/2000/svg"><path d="m621.101562-4.082031h-602.203124c-10.4375 0-18.898438 8.460937-18.898438 18.894531v470.703125c0 10.441406 8.460938 18.902344 18.898438 18.902344h602.203124c10.4375 0 18.898438-8.460938 18.898438-18.902344v-470.703125c0-10.433594-8.460938-18.894531-18.898438-18.894531zm-18.894531 470.703125h-564.414062v-432.910156h564.414062zm0 0"/><path d="m103.304688 280.8125h143.433593c10.433594 0 18.894531-8.460938 18.894531-18.894531v-166.730469c0-10.433594-8.460937-18.894531-18.894531-18.894531h-143.433593c-10.433594 0-18.894532 8.460937-18.894532 18.894531v166.730469c0 10.433593 8.460938 18.894531 18.894532 18.894531zm18.902343-166.722656h105.636719v128.929687h-105.636719zm0 0"/><path d="m331.335938 425.273438h206.617187c10.4375 0 18.898437-8.464844 18.898437-18.902344v-311.183594c0-10.433594-8.460937-18.894531-18.898437-18.894531h-45.039063v-8.820313c0-10.433594-8.460937-18.894531-18.894531-18.894531h-78.746093c-10.433594 0-18.898438 8.460937-18.898438 18.894531v8.820313h-45.039062c-10.433594 0-18.894532 8.460937-18.894532 18.894531v311.183594c0 10.4375 8.460938 18.902344 18.894532 18.902344zm82.835937-338.902344h40.945313v41.644531h-40.945313zm-63.9375 27.71875h26.140625v32.824218c0 10.4375 8.464844 18.894532 18.898438 18.894532h78.746093c10.433594 0 18.894531-8.457032 18.894531-18.894532v-32.824218h26.140626v273.382812h-168.820313zm0 0"/><path d="m125.371094 353.460938h99.300781c10.4375 0 18.898437-8.460938 18.898437-18.902344 0-10.433594-8.460937-18.894532-18.898437-18.894532h-99.300781c-10.433594 0-18.894532 8.460938-18.894532 18.894532 0 10.441406 8.460938 18.902344 18.894532 18.902344zm0 0"/><path d="m252.0625 387.472656h-143.433594c-10.433594 0-18.898437 8.464844-18.898437 18.898438 0 10.4375 8.464843 18.902344 18.898437 18.902344h143.433594c10.433594 0 18.894531-8.464844 18.894531-18.902344 0-10.433594-8.460937-18.898438-18.894531-18.898438zm0 0"/></svg>