<svg id="Capa_1" enable-background="new 0 0 323.358 323.358" height="512" viewBox="0 0 323.358 323.358" width="512" xmlns="http://www.w3.org/2000/svg"><g><g><path d="m48.863 323.358h189.703c3.174 0 6.228-1.258 8.443-3.533l66.827-66.827c2.275-2.275 3.533-5.27 3.533-8.443v-177.728c0-23.653-19.222-42.875-42.875-42.875h-17.006v-11.976c.001-6.587-5.389-11.976-11.976-11.976s-11.976 5.389-11.976 11.976v11.976h-143.714v-11.976c0-6.587-5.39-11.976-11.977-11.976s-11.976 5.389-11.976 11.976v11.976h-17.006c-23.653 0-42.875 19.222-42.875 42.875v213.656c0 23.653 19.222 42.875 42.875 42.875zm190.661-29.881v-38.504c0-1.916 1.557-3.473 3.473-3.473h38.504zm-209.583-226.65c0-10.419 8.503-18.922 18.922-18.922h17.006v11.976c0 6.587 5.389 11.976 11.976 11.976s11.976-5.389 11.976-11.976v-11.976h143.715v11.976c0 6.587 5.389 11.976 11.976 11.976s11.976-5.389 11.976-11.976v-11.976h17.006c10.419 0 18.922 8.503 18.922 18.922v160.721h-50.42c-15.15 0-27.426 12.276-27.426 27.426v44.432h-166.707c-10.419 0-18.922-8.503-18.922-18.922z"/><circle cx="92.816" cy="122.756" r="14.97"/><circle cx="158.685" cy="122.756" r="14.97"/><circle cx="224.554" cy="122.756" r="14.97"/><circle cx="92.816" cy="182.637" r="14.97"/><circle cx="158.685" cy="182.637" r="14.97"/><circle cx="224.554" cy="182.637" r="14.97"/><circle cx="92.816" cy="242.518" r="14.97"/><circle cx="158.685" cy="242.518" r="14.97"/></g></g></svg>