<svg height="512pt" viewBox="-79 0 512 512" width="512pt" xmlns="http://www.w3.org/2000/svg"><path d="m259 337h-10v-36.75c10.6875-14.683594 17-32.742188 17-52.25v-92.574219c36.019531-4.453125 64-35.222656 64-72.425781 0-40.253906-32.746094-73-73-73-11.433594 0-22.457031 2.597656-32.46875 7.59375-13.128906-11.300781-29.867188-17.59375-47.53125-17.59375s-34.402344 6.292969-47.53125 17.59375c-10.011719-4.996094-21.035156-7.59375-32.46875-7.59375-40.253906 0-73 32.746094-73 73 0 37.203125 27.980469 67.972656 64 72.425781v92.574219c0 19.507812 6.3125 37.566406 17 52.25v36.75h-10c-52.382812 0-95 42.617188-95 95v80h354v-80c0-52.382812-42.617188-95-95-95zm-162-211c-23.710938 0-43-19.289062-43-43s19.289062-43 43-43c9.402344 0 18.328125 2.980469 25.816406 8.613281l11.589844 8.722657 9.105469-11.292969c8.222656-10.195313 20.425781-16.042969 33.488281-16.042969s25.265625 5.847656 33.488281 16.042969l9.105469 11.292969 11.589844-8.722657c7.488281-5.632812 16.414062-8.613281 25.816406-8.613281 23.710938 0 43 19.289062 43 43s-19.289062 43-43 43c-13.0625 0-25.265625-5.847656-33.488281-16.042969l-23.355469 18.832031c9.410156 11.664063 21.902344 19.96875 35.84375 24.140626v32.070312h-118v-32.070312c13.941406-4.171876 26.433594-12.476563 35.839844-24.140626l-23.351563-18.832031c-8.222656 10.195313-20.425781 16.042969-33.488281 16.042969zm139 89v33c0 32.53125-26.46875 59-59 59s-59-26.46875-59-59v-33zm-74 267h-132v-50c0-35.839844 29.160156-65 65-65h3.136719l13.246093 9.277344c15.347657 10.769531 32.757813 17.308594 50.617188 19.65625zm-27-126.214844v-29.339844c12.519531 6.730469 26.820312 10.554688 42 10.554688s29.480469-3.824219 42-10.554688v29.339844c-25.917969 14.890625-58.082031 14.890625-84 0zm189 126.214844h-132v-86.066406c17.859375-2.347656 35.269531-8.886719 50.617188-19.65625l13.476562-9.277344h2.90625c35.839844 0 65 29.160156 65 65zm0 0"/><path d="m252 437c0 8.285156-6.714844 15-15 15s-15-6.714844-15-15 6.714844-15 15-15 15 6.714844 15 15zm0 0"/></svg>