<?xml version="1.0" encoding="iso-8859-1"?>
<!-- Generator: Adobe Illustrator 19.0.0, SVG Export Plug-In . SVG Version: 6.00 Build 0)  -->
<svg version="1.1" id="Layer_1" xmlns="http://www.w3.org/2000/svg" xmlns:xlink="http://www.w3.org/1999/xlink" x="0px" y="0px"
	 viewBox="0 0 512 512" style="enable-background:new 0 0 512 512;" xml:space="preserve">
<g>
	<g>
		<path d="M414.042,149.67l-84.529-12.283L291.71,60.791c-14.601-29.587-56.822-29.578-71.418-0.001l-37.803,76.596L97.96,149.67
			c-32.653,4.744-45.687,44.899-22.069,67.923l61.166,59.622L122.618,361.4c-5.577,32.521,28.582,57.325,57.779,41.98l75.605-39.75
			l75.606,39.75c29.156,15.327,63.355-9.464,57.779-41.98l-14.439-84.186l61.167-59.622
			C459.737,194.56,446.681,154.413,414.042,149.67z M412.286,193.151l-67.591,65.884c-4.022,3.921-5.857,9.57-4.908,15.106
			l15.956,93.031c0.801,4.672-4.06,8.2-8.254,5.997l-83.547-43.923c-4.971-2.613-10.912-2.613-15.883,0l-83.547,43.923
			c-4.196,2.205-9.055-1.326-8.254-5.997l15.956-93.031c0.949-5.536-0.886-11.185-4.908-15.106l-67.591-65.884
			c-3.395-3.309-1.538-9.021,3.153-9.704l93.408-13.573c5.558-0.808,10.364-4.298,12.85-9.335l41.774-84.643
			c2.097-4.248,8.104-4.251,10.202,0.001l41.774,84.642c2.486,5.037,7.292,8.528,12.85,9.335l93.408,13.573
			C413.824,184.13,415.68,189.843,412.286,193.151z"/>
	</g>
</g>
<g>
	<g>
		<path d="M134.731,47.152L114.32,19.059c-5.542-7.624-16.214-9.316-23.838-3.774c-7.625,5.54-9.316,16.213-3.775,23.838
			l20.411,28.092c5.544,7.628,16.216,9.313,23.838,3.774C138.581,65.45,140.272,54.777,134.731,47.152z"/>
	</g>
</g>
<g>
	<g>
		<path d="M66.997,298.907c-2.911-8.963-12.539-13.873-21.505-10.957l-33.696,10.949c-8.964,2.913-13.869,12.54-10.957,21.505
			c2.917,8.979,12.561,13.867,21.505,10.957l33.696-10.949C65.005,317.499,69.91,307.871,66.997,298.907z"/>
	</g>
</g>
<g>
	<g>
		<path d="M421.519,15.286c-7.624-5.54-18.297-3.851-23.838,3.774l-20.411,28.092c-5.541,7.625-3.85,18.299,3.775,23.838
			c7.628,5.542,18.3,3.848,23.838-3.774l20.411-28.092C430.834,31.499,429.144,20.825,421.519,15.286z"/>
	</g>
</g>
<g>
	<g>
		<path d="M500.203,298.899l-33.696-10.949c-8.964-2.918-18.592,1.993-21.505,10.957c-2.913,8.964,1.992,18.593,10.957,21.505
			l33.696,10.949c8.945,2.909,18.588-1.979,21.505-10.957C514.073,311.44,509.167,301.812,500.203,298.899z"/>
	</g>
</g>
<g>
	<g>
		<path d="M256,431.205c-9.425,0-17.066,7.641-17.066,17.066v34.638c0,9.425,7.641,17.066,17.066,17.066
			c9.425,0,17.066-7.641,17.066-17.066v-34.638C273.067,438.845,265.426,431.205,256,431.205z"/>
	</g>
</g>
<g>
</g>
<g>
</g>
<g>
</g>
<g>
</g>
<g>
</g>
<g>
</g>
<g>
</g>
<g>
</g>
<g>
</g>
<g>
</g>
<g>
</g>
<g>
</g>
<g>
</g>
<g>
</g>
<g>
</g>
</svg>
