<svg id="Capa_1" enable-background="new 0 0 512 512" height="512" viewBox="0 0 512 512" width="512" xmlns="http://www.w3.org/2000/svg"><g><path d="m301 105c0-24.813-20.187-45-45-45s-45 20.187-45 45 20.187 45 45 45 45-20.187 45-45zm-45 15c-8.271 0-15-6.729-15-15s6.729-15 15-15 15 6.729 15 15-6.729 15-15 15z"/><path d="m452 392v-92h-181v-30.838c67.406-7.486 120-64.793 120-134.162 0-74.439-60.561-135-135-135s-135 60.561-135 135c0 69.369 52.594 126.676 120 134.162v30.838h-181v92h-60v120h150v-120h-60v-62h151v62h-60v120h150v-120h-60v-62h151v62h-60v120h150v-120zm-151-162.145c-13.647 6.5-28.905 10.145-45 10.145s-31.353-3.645-45-10.145v-4.855c0-24.813 20.187-45 45-45s45 20.187 45 45zm-150-94.855c0-57.897 47.103-105 105-105s105 47.103 105 105c0 29.317-12.082 55.86-31.522 74.928-6.996-34.157-37.284-59.928-73.478-59.928s-66.482 25.771-73.478 59.928c-19.44-19.068-31.522-45.611-31.522-74.928zm-31 347h-90v-60h90zm181 0h-90v-60h90zm181 0h-90v-60h90z"/></g></svg>