<svg id="Capa_1" enable-background="new 0 0 512 512" height="512" viewBox="0 0 512 512" width="512" xmlns="http://www.w3.org/2000/svg"><g><path d="m446.547 138.474v-138.474h-381.094v138.474l-65.453 48.479v325.047h512v-325.047zm-265.723 197.551-150.824 128.491v-240.205zm43.991-176.028c0-17.195 13.989-31.185 31.185-31.185s31.185 13.989 31.185 31.185-13.99 31.185-31.185 31.185-31.185-13.99-31.185-31.185zm31.185 61.185c21.621 0 42.092 8.267 57.643 23.277 13.667 13.193 22.26 30.355 24.665 48.951l-82.308 60.964-82.302-60.961c2.375-18.395 10.794-35.383 24.238-48.544 15.603-15.275 36.224-23.687 58.064-23.687zm-50.431 133.171 50.431 37.354 50.431-37.354 149.832 127.647h-400.526zm125.607-18.328 150.824-111.714v240.205zm140.639-141.503-25.268 18.716v-37.431zm-55.268-164.136v205.073l-51.685 38.283c-5.342-19.19-15.718-36.709-30.384-50.866-9.716-9.379-20.846-16.818-32.887-22.129 9.689-10.828 15.594-25.109 15.594-40.749 0-33.737-27.447-61.185-61.185-61.185s-61.185 27.447-61.185 61.185c0 15.636 5.903 29.914 15.587 40.741-12.276 5.415-23.601 13.047-33.454 22.693-14.385 14.083-24.549 31.385-29.814 50.307l-51.682-38.28v-205.073zm-351.094 182.852-25.268-18.716 25.268-18.715z"/></g></svg>