<svg id="Capa_1" enable-background="new 0 0 512 512" height="512" viewBox="0 0 512 512" width="512" xmlns="http://www.w3.org/2000/svg"><g><path d="m210 0v210h188.787l35.876 35.876 38.269-35.876h39.068v-210zm272 180h-20.932l-25.731 24.124-24.124-24.124h-171.213v-150h242z"/><path d="m75 263.787-36.213 36.213h-38.787v212h300v-212h-188.787zm195 218.213h-240v-152h21.213l23.787-23.787 23.787 23.787h171.213z"/><path d="m150 60c0-33.084-26.916-60-60-60s-60 26.916-60 60 26.916 60 60 60 60-26.916 60-60zm-60 30c-16.542 0-30-13.458-30-30s13.458-30 30-30 30 13.458 30 30-13.458 30-30 30z"/><path d="m180 195c0-41.355-33.645-75-75-75h-30c-41.355 0-75 33.645-75 75v15h180zm-147.43-15c6.19-17.461 22.873-30 42.43-30h30c19.557 0 36.239 12.539 42.43 30z"/><path d="m482 362c0-33.084-26.916-60-60-60s-60 26.916-60 60 26.916 60 60 60 60-26.916 60-60zm-60 30c-16.542 0-30-13.458-30-30s13.458-30 30-30 30 13.458 30 30-13.458 30-30 30z"/><path d="m437 422h-30c-41.355 0-75 33.645-75 75v15h180v-15c0-41.355-33.645-75-75-75zm-72.43 60c6.19-17.461 22.873-30 42.43-30h30c19.557 0 36.239 12.539 42.43 30z"/><path d="m270 60h180v30h-180z"/><path d="m60 360h180v30h-180z"/><path d="m270 120h120v30h-120z"/><path d="m60 420h120v30h-120z"/></g></svg>