<svg enable-background="new 0 0 32 32" height="512" viewBox="0 0 32 32" width="512" xmlns="http://www.w3.org/2000/svg"><g id="Layer_3"><path d="m28.23 1h-20.564c-1.527 0-2.77 1.243-2.77 2.77v.342c0 .552.448 1 1 1s1-.448 1-1v-.342c0-.425.345-.77.77-.77h20.564c.425 0 .77.345.77.77v20.564c0 .425-.345.77-.77.77h-.342c-.552 0-1 .448-1 1s.448 1 1 1h.342c1.527 0 2.77-1.243 2.77-2.77v-20.564c0-1.527-1.243-2.77-2.77-2.77z"/><path d="m23.36 5.87h-19.59c-1.527 0-2.77 1.242-2.77 2.77v19.59c0 1.527 1.243 2.77 2.77 2.77h19.59c1.527 0 2.77-1.243 2.77-2.77v-19.59c0-1.528-1.242-2.77-2.77-2.77zm-20.36 22.36v-19.59c0-.425.345-.77.77-.77h19.59c.425 0 .77.345.77.77v6.731c-3.823.135-7.409 1.66-10.141 4.356-2.551 2.492-4.107 5.757-4.47 9.273h-5.749c-.425 0-.77-.345-.77-.77zm20.36.77h-11.836c.354-2.973 1.698-5.728 3.867-7.846 2.358-2.328 5.445-3.649 8.739-3.783v10.859c0 .425-.345.77-.77.77z"/><path d="m12.737 14.052c0-2.162-1.759-3.92-3.921-3.92s-3.92 1.759-3.92 3.92 1.759 3.92 3.92 3.92c2.162.001 3.921-1.758 3.921-3.92zm-5.841 0c0-1.059.861-1.92 1.92-1.92s1.921.861 1.921 1.92-.862 1.92-1.921 1.92-1.92-.861-1.92-1.92z"/></g></svg>