<svg height="512pt" viewBox="0 0 512 512" width="512pt" xmlns="http://www.w3.org/2000/svg"><path d="m421.5 60v-60h-90v60h-15.5c-24.507812 0-46.304688 11.816406-60 30.050781-13.695312-18.234375-35.492188-30.050781-60-30.050781h-196v452h512v-452zm-60 195h30v32c0 8.269531-6.730469 15-15 15s-15-6.730469-15-15zm30-30h-30v-77.578125c4.695312 1.664063 9.742188 2.578125 15 2.578125s10.304688-.914062 15-2.578125zm-30-195h30v75c0 8.269531-6.730469 15-15 15s-15-6.730469-15-15zm-45.5 60h15.5v197c0 24.8125 20.1875 45 45 45s45-20.1875 45-45v-197h60.5v272h-166c-16.871094 0-32.457031 5.597656-45 15.035156v-242.035156c0-24.8125 20.1875-45 45-45zm-75 347.035156c-12.542969-9.4375-28.128906-15.035156-45-15.035156h-166v-30h166c24.8125 0 45 20.1875 45 45.035156zm30-.035156c0-24.8125 20.1875-45 45-45h166v30h-166c-16.871094 0-32.457031 5.597656-45 15zm-75-347c24.8125 0 45 20.1875 45 45v242.035156c-12.542969-9.4375-28.128906-15.035156-45-15.035156h-166v-272zm-166 362h166c19.554688 0 36.226562 12.539062 42.421875 30h-208.421875zm243.578125 30c6.195313-17.460938 22.867187-30 42.421875-30h166v30zm0 0"/></svg>