<svg id="Line" height="512" viewBox="0 0 64 64" width="512" xmlns="http://www.w3.org/2000/svg"><g fill="#231f20" stroke="#000" stroke-miterlimit="10"><path d="m55.09814 8.77393h-46.19628c-2.70313 0-4.90186 1.72949-4.90186 3.85498v28.40722c0 2.12549 2.19873 3.855 4.90186 3.855h24.45556l10.043 7.84327a2 2 0 0 0 3.231-1.57618l.00049-6.16943 8.47314-.09766c2.69971-.00293 4.895-1.73095 4.895-3.855v-28.40722c-.00005-2.12549-2.19878-3.85498-4.90191-3.85498zm2.90186 32.2622c0 .98828-1.356 1.855-2.90186 1.855h-.01171l-8.478.09766a2.00709 2.00709 0 0 0 -1.97705 2l.00049 6.16943-10.042-7.84228a2.00655 2.00655 0 0 0 -1.23242-.42481h-24.45559c-1.54586-.00002-2.90186-.86672-2.90186-1.855v-28.40722c0-.98828 1.356-1.855 2.90186-1.855h46.19628c1.5459 0 2.90186.8667 2.90186 1.855z"/><path d="m18.602 19.11914a1 1 0 0 0 -1 1v5.71338h-6.102v-5.71338a1 1 0 0 0 -2 0v13.42676a1 1 0 0 0 2 0v-5.71338h6.102v5.71338a1 1 0 0 0 2 0v-13.42676a1 1 0 0 0 -1-1z"/><path d="m30.91943 21.11914a1 1 0 0 0 0-2h-6.80517a1 1 0 0 0 -1 1v13.42676a1.00005 1.00005 0 0 0 1 1h6.80517a1 1 0 0 0 0-2h-5.80517v-4.71338h5.80517a1 1 0 0 0 0-2h-5.80517v-4.71338z"/><path d="m42.98291 32.5459h-6.14258v-12.42676a1 1 0 0 0 -2 0v13.42676a1.00006 1.00006 0 0 0 1 1h7.14258a1 1 0 0 0 0-2z"/><path d="m49.68506 19.11914h-3.3252a1.00005 1.00005 0 0 0 -1 1v13.42676a1 1 0 0 0 2 0v-5.93262h2.3252a4.56318 4.56318 0 0 0 4.81494-4.24707 4.56318 4.56318 0 0 0 -4.81494-4.24707zm0 6.49414h-2.3252v-4.49414h2.3252a2.58234 2.58234 0 0 1 2.81494 2.24707 2.58234 2.58234 0 0 1 -2.81494 2.24707z"/></g></svg>