<svg width="48" height="48" viewBox="0 0 48 48" fill="none" xmlns="http://www.w3.org/2000/svg">
<path d="M26.4 21.6H12C11.3635 21.6 10.753 21.8529 10.3029 22.3029C9.85286 22.753 9.6 23.3635 9.6 24C9.6 24.6365 9.85286 25.247 10.3029 25.6971C10.753 26.1471 11.3635 26.4 12 26.4H26.4C27.0365 26.4 27.647 26.1471 28.0971 25.6971C28.5471 25.247 28.8 24.6365 28.8 24C28.8 23.3635 28.5471 22.753 28.0971 22.3029C27.647 21.8529 27.0365 21.6 26.4 21.6ZM36 12H12C11.3635 12 10.753 12.2529 10.3029 12.7029C9.85286 13.153 9.6 13.7635 9.6 14.4C9.6 15.0365 9.85286 15.647 10.3029 16.0971C10.753 16.5471 11.3635 16.8 12 16.8H36C36.6365 16.8 37.247 16.5471 37.6971 16.0971C38.1471 15.647 38.4 15.0365 38.4 14.4C38.4 13.7635 38.1471 13.153 37.6971 12.7029C37.247 12.2529 36.6365 12 36 12ZM40.8 0H7.2C5.29044 0 3.45909 0.758569 2.10883 2.10883C0.75857 3.45909 0 5.29044 0 7.2V31.2C0 33.1096 0.75857 34.9409 2.10883 36.2912C3.45909 37.6414 5.29044 38.4 7.2 38.4H35.016L43.896 47.304C44.1203 47.5264 44.3862 47.7024 44.6786 47.8218C44.971 47.9413 45.2841 48.0018 45.6 48C45.9148 48.0081 46.2272 47.9424 46.512 47.808C46.9503 47.6279 47.3255 47.3222 47.5903 46.9293C47.8551 46.5363 47.9976 46.0738 48 45.6V7.2C48 5.29044 47.2414 3.45909 45.8912 2.10883C44.5409 0.758569 42.7096 0 40.8 0ZM43.2 39.816L37.704 34.296C37.4797 34.0736 37.2138 33.8976 36.9214 33.7781C36.629 33.6587 36.3159 33.5982 36 33.6H7.2C6.56348 33.6 5.95303 33.3471 5.50294 32.8971C5.05286 32.447 4.8 31.8365 4.8 31.2V7.2C4.8 6.56348 5.05286 5.95303 5.50294 5.50294C5.95303 5.05286 6.56348 4.8 7.2 4.8H40.8C41.4365 4.8 42.047 5.05286 42.4971 5.50294C42.9471 5.95303 43.2 6.56348 43.2 7.2V39.816Z" fill="#80011F"/>
</svg>
