<svg id="Layer_1" enable-background="new 0 0 512 512" height="512" viewBox="0 0 512 512" width="512" xmlns="http://www.w3.org/2000/svg"><path d="m511.733 347.212-35.961-194.61c-1.401-7.587-8.019-13.093-15.733-13.093h-44.374l16.061-51.335c2.622-8.382-2.002-17.311-10.361-20.006l-209.051-67.397c-4.077-1.313-8.515-.938-12.313 1.045-3.8 1.983-6.645 5.408-7.896 9.507l-39.179 128.186h-100.965c-7.715 0-14.332 5.506-15.733 13.093l-35.961 194.61c-.864 4.673.395 9.488 3.435 13.142s7.547 5.766 12.299 5.766h480c4.752 0 9.259-2.112 12.299-5.766s4.298-8.469 3.433-13.142zm-293.775-310.999 178.491 57.545-44.757 143.056h-195.047zm-182.73 297.906 30.048-162.61h77.869l-19.96 65.305h-17.798c-8.837 0-16 7.163-16 16s7.163 16 16 16h301.227c8.837 0 16-7.163 16-16s-7.163-16-16-16h-21.391l20.431-65.305h41.071l30.048 162.61zm123.5 80.292-31.337 87.011c-2.286 6.347-8.308 10.578-15.054 10.578s-12.768-4.231-15.054-10.578l-31.337-87.011c-2.994-8.314 1.318-17.481 9.632-20.476 8.32-2.995 17.48 1.318 20.476 9.632l16.283 45.213 16.283-45.213c2.995-8.313 12.162-12.625 20.476-9.632 8.313 2.995 12.626 12.162 9.632 20.476zm190.283-5.422c0 8.837-7.163 16-16 16h-12.704v71.011c0 8.837-7.163 16-16 16s-16-7.163-16-16v-71.011h-12.704c-8.837 0-16-7.163-16-16s7.163-16 16-16h57.408c8.837 0 16 7.163 16 16zm40.581 16v11.506h23.28c8.837 0 16 7.163 16 16s-7.163 16-16 16h-23.28v11.505h41.408c8.837 0 16 7.163 16 16s-7.163 16-16 16h-57.408c-8.837 0-16-7.163-16-16v-87.011c0-8.837 7.163-16 16-16h57.408c8.837 0 16 7.163 16 16s-7.163 16-16 16zm-166.988-32h-26.618c-17.312 0-31.396 14.298-31.396 31.873v55.265c0 17.575 14.084 31.873 31.396 31.873h26.618c17.312 0 31.396-14.298 31.396-31.873v-55.265c-.001-17.575-14.085-31.873-31.396-31.873zm-.618 87.011h-25.396l.013-55.011h25.396z"/></svg>